<svg width="2000.000000" height="2000.000000" viewBox="0 0 15 13" version="1.1" xmlns="http://www.w3.org/2000/svg" transform="translate(100 100)">
<text x = "0.200000" y="0.200000" font-size="0.120000" style="writing-mode: tb;" fill="red">R1 10K</text>
<circle cx="0" cy="0" r="0.050000"/>
<text x = "-0.150000" y="-0.075000" font-size="0.120000" fill="black">Net1</text>
<circle cx="0" cy="2" r="0.050000"/>
<text x = "-0.150000" y="2.150000" font-size="0.120000" fill="black">0</text>
<path d=" M 0 0 l 0.25 0 l 0.04166666667 -0.08333333334 l 0.08333333334 0.166666666667 l 0.08333333334 -0.166666666667 l 0.08333333334 0.166666666667 l 0.08333333334 -0.166666666667 l 0.08333333334 0.166666666667 l 0.04166666667 -0.08333333334 l 0.25 0 " stroke="black" stroke-width="0.030000" stroke-linejoin="bevel" fill="none"  transform="translate(0 0) rotate(90)"/>
<line x1="0" x2="0" y1="1" y2="2" stroke-width="0.030000" stroke="black"/>
<text x = "1.330000" y="0.200000" font-size="0.120000" style="writing-mode: tb;" fill="blue">C1 100NF</text>
<circle cx="1" cy="0" r="0.050000"/>
<text x = "0.850000" y="-0.075000" font-size="0.120000" fill="black">Net1</text>
<circle cx="1" cy="1" r="0.050000"/>
<text x = "0.850000" y="1.150000" font-size="0.120000" fill="black">Net0</text>
 	<g transform = "translate(1,0)"> 		<path d=" 			M 0 0 			l 0 0.4 			" stroke="black" stroke-width="0.030000" stroke-linejoin="bevel" fill="none"/> 		<path d=" 			M -0.25 0.4 			l 0.5 0 			" stroke="black" stroke-width="0.030000" stroke-linejoin="bevel" fill="none"/> 		<path d=" 			M -0.25 0.6 			l 0.5 0 			" stroke="black" stroke-width="0.030000" stroke-linejoin="bevel" fill="none"/> 		<path d=" 			M 0 0.6 			l 0 0.4 			" stroke="black" stroke-width="0.030000" stroke-linejoin="bevel" fill="none"/>  	</g>  	<text x = "2.200000" y="1.200000" font-size="0.120000" style="writing-mode: tb;" fill="green">L1 10NH</text>
<circle cx="2" cy="1" r="0.050000"/>
<text x = "1.850000" y="0.925000" font-size="0.120000" fill="black">Net0</text>
<circle cx="2" cy="2" r="0.050000"/>
<text x = "1.850000" y="2.150000" font-size="0.120000" fill="black">0</text>
<path 		d=" 			M 0,0 			L 5.5,0 			C 5.5,0 5.5,-4 9.5,-4 			C 13.5,-4 13.5,0 13.5,0 			C 13.5,0 13.5,-4 17.5,-4 			C 21.5,-4 21.5,0 21.5,0 			C 21.5,0 21.5,-4 25.5,-4 			C 29.5,-4 29.5,0 29.5,0 			C 29.5,0 29.5,-4 33.5,-4 			C 37.5,-4 37.5,0 37.5,0 			L 43,0 		" 		stroke="black" stroke-width="1.290000" stroke-linejoin="miter" fill="none" fill-rule="evenodd" fill-opacity="0.75" stroke-linecap="butt" stroke-opacity="1" transform="translate(2,1) scale(0.02325581395) rotate(90) " />
 <text x = "3.330000" y="1.200000" font-size="0.120000" style="writing-mode: tb;" fill="blue">R2 1F</text>
<circle cx="3" cy="1" r="0.050000"/>
<text x = "2.850000" y="0.925000" font-size="0.120000" fill="black">Net0</text>
<circle cx="3" cy="2" r="0.050000"/>
<text x = "2.850000" y="2.150000" font-size="0.120000" fill="black">0</text>
 	<g transform = "translate(3,1)"> 		<path d=" 			M 0 0 			l 0 0.4 			" stroke="black" stroke-width="0.030000" stroke-linejoin="bevel" fill="none"/> 		<path d=" 			M -0.25 0.4 			l 0.5 0 			" stroke="black" stroke-width="0.030000" stroke-linejoin="bevel" fill="none"/> 		<path d=" 			M -0.25 0.6 			l 0.5 0 			" stroke="black" stroke-width="0.030000" stroke-linejoin="bevel" fill="none"/> 		<path d=" 			M 0 0.6 			l 0 0.4 			" stroke="black" stroke-width="0.030000" stroke-linejoin="bevel" fill="none"/>  	</g>  	<text x = "4.330000" y="1.200000" font-size="0.120000" style="writing-mode: tb;" fill="blue">C2 10MegF</text>
<circle cx="4" cy="1" r="0.050000"/>
<text x = "3.850000" y="0.925000" font-size="0.120000" fill="black">Net0</text>
<circle cx="4" cy="2" r="0.050000"/>
<text x = "3.850000" y="2.150000" font-size="0.120000" fill="black">0</text>
 	<g transform = "translate(4,1)"> 		<path d=" 			M 0 0 			l 0 0.4 			" stroke="black" stroke-width="0.030000" stroke-linejoin="bevel" fill="none"/> 		<path d=" 			M -0.25 0.4 			l 0.5 0 			" stroke="black" stroke-width="0.030000" stroke-linejoin="bevel" fill="none"/> 		<path d=" 			M -0.25 0.6 			l 0.5 0 			" stroke="black" stroke-width="0.030000" stroke-linejoin="bevel" fill="none"/> 		<path d=" 			M 0 0.6 			l 0 0.4 			" stroke="black" stroke-width="0.030000" stroke-linejoin="bevel" fill="none"/>  	</g>  	<line x1="0" x2="1" y1="0" y2="0" stroke-width="0.030000" stroke="black"/>
<line x1="1" x2="4" y1="1" y2="1" stroke-width="0.030000" stroke="black"/>
<line x1="0" x2="4" y1="2" y2="2" stroke-width="0.030000" stroke="black"/>
 <g transform="translate(4,2)"> <g transform="matrix(0.01259861,0,0,0.01413041,-0.15527664,-0.06236267)"> <path d="m 0.5,24.5 24,0" style="fill:none;fill-opacity:0.75;fill-rule:evenodd;stroke:#000000;stroke-width:1.800000;stroke-linecap:butt;stroke-linejoin:miter;stroke-opacity:1"/> <path d="m 4.5,27.5 16,0" style="fill:none;fill-opacity:0.75;fill-rule:evenodd;stroke:#000000;stroke-width:1.800000;stroke-linecap:butt;stroke-linejoin:miter;stroke-opacity:1"/> <path d="m 16.5,30.5 -8,0" style="fill:none;fill-opacity:0.75;fill-rule:evenodd;stroke:#000000;stroke-width:1.800000;stroke-linecap:butt;stroke-linejoin:miter;stroke-opacity:1"/> <path d="m 12.5,24.5 0,-20" style="fill:none;fill-opacity:0.75;fill-rule:evenodd;stroke:#000000;stroke-width:1.800000;stroke-linecap:butt;stroke-linejoin:miter;stroke-opacity:1"/> </g> </g> 
</svg>
