<svg xmlns="http://www.w3.org/2000/svg" xmlns:xlink="http://www.w3.org/1999/xlink" version="1.1" width="530" height="158"><defs/><g transform=" scale(0.8) translate(-64,-106)"><path d="M 390 180 L 390 190" fill="none" stroke="#000000" stroke-width="2" stroke-miterlimit="10" pointer-events="none"/><rect x="400" y="180" width="26" height="14" fill-opacity="0" fill="#dae2f2" stroke="none" pointer-events="none"/><g fill="#000000" font-family="Arial,Helvetica" font-weight="bold" text-anchor="middle" font-size="12px"><text x="413" y="191">Net1</text></g><path d="M 480 160 L 540 160" fill="none" stroke="#000000" stroke-width="2" stroke-miterlimit="10" pointer-events="none"/><path d="M 510 158 L 510 130 L 610 130 L 610 160" fill="none" stroke="#000000" stroke-width="2" stroke-miterlimit="10" pointer-events="none"/><ellipse cx="510" cy="160" rx="2" ry="2" fill="#000000" stroke="#000000" stroke-width="2" pointer-events="none"/><path d="M 220 160 L 220 130 L 390 130" fill="none" stroke="#000000" stroke-width="2" stroke-miterlimit="10" pointer-events="none"/><path d="M 508 130 L 372 130" fill="none" stroke="#000000" stroke-width="2" stroke-miterlimit="10" pointer-events="none"/><ellipse cx="510" cy="130" rx="2" ry="2" fill="#000000" stroke="#000000" stroke-width="2" pointer-events="none"/><ellipse cx="370" cy="130" rx="2" ry="2" fill="#000000" stroke="#000000" stroke-width="2" pointer-events="none"/><rect x="410" y="110" width="26" height="14" fill-opacity="0" fill="#dae2f2" stroke="none" pointer-events="none"/><g fill="#000000" font-family="Arial,Helvetica" font-weight="bold" text-anchor="middle" font-size="12px"><text x="423" y="121">Net0</text></g><path d="M 480 220 L 540 220" fill="none" stroke="#000000" stroke-width="2" stroke-miterlimit="10" pointer-events="none"/><path d="M 510 222 L 510 260 L 390 260" fill="none" stroke="#000000" stroke-width="2" stroke-miterlimit="10" pointer-events="none"/><ellipse cx="510" cy="220" rx="2" ry="2" fill="#000000" stroke="#000000" stroke-width="2" pointer-events="none"/><path d="M 610 210 L 610 260 L 512 260" fill="none" stroke="#000000" stroke-width="2" stroke-miterlimit="10" pointer-events="none"/><ellipse cx="510" cy="260" rx="2" ry="2" fill="#000000" stroke="#000000" stroke-width="2" pointer-events="none"/><path d="M 220 220 L 220 260 L 398 260" fill="none" stroke="#000000" stroke-width="2" stroke-miterlimit="10" pointer-events="none"/><ellipse cx="400" cy="260" rx="2" ry="2" fill="#000000" stroke="#000000" stroke-width="2" pointer-events="none"/><path d="M 390 250 L 390 258" fill="none" stroke="#000000" stroke-width="2" stroke-miterlimit="10" pointer-events="none"/><ellipse cx="390" cy="260" rx="2" ry="2" fill="#000000" stroke="#000000" stroke-width="2" pointer-events="none"/><rect x="389" y="189" width="2" height="2" fill="#000000" stroke="none" pointer-events="none"/><rect x="389" y="249" width="2" height="2" fill="#000000" stroke="none" pointer-events="none"/><path d="M 390 202 L 397 205 L 390 208" fill="none" stroke="#000000" stroke-width="2" stroke-linejoin="round" stroke-linecap="round" stroke-miterlimit="10" pointer-events="none"/><path d="M 390 208 L 383 211 L 390 214" fill="none" stroke="#000000" stroke-width="2" stroke-linejoin="round" stroke-linecap="round" stroke-miterlimit="10" pointer-events="none"/><path d="M 390 214 L 397 217 L 390 220" fill="none" stroke="#000000" stroke-width="2" stroke-linejoin="round" stroke-linecap="round" stroke-miterlimit="10" pointer-events="none"/><path d="M 390 220 L 383 223 L 390 226" fill="none" stroke="#000000" stroke-width="2" stroke-linejoin="round" stroke-linecap="round" stroke-miterlimit="10" pointer-events="none"/><path d="M 390 226 L 397 229 L 390 232" fill="none" stroke="#000000" stroke-width="2" stroke-linejoin="round" stroke-linecap="round" stroke-miterlimit="10" pointer-events="none"/><path d="M 390 232 L 383 235 L 390 238" fill="none" stroke="#000000" stroke-width="2" stroke-linejoin="round" stroke-linecap="round" stroke-miterlimit="10" pointer-events="none"/><path d="M 390 191 L 390 201" fill="#000000" stroke="#000000" stroke-width="2" stroke-linecap="square" stroke-miterlimit="10" pointer-events="none"/><path d="M 390 239 L 390 249" fill="#000000" stroke="#000000" stroke-width="2" stroke-linecap="square" stroke-miterlimit="10" pointer-events="none"/><rect x="361" y="190" width="19" height="13" fill-opacity="0" fill="#dae2f2" stroke="none" pointer-events="none"/><g fill="#000000" font-family="Arial,Helvetica" font-weight="bold" text-anchor="middle" font-size="12px"><text x="370.5" y="200.5">10K</text></g><rect x="366" y="216" width="14" height="13" fill-opacity="0" fill="#dae2f2" stroke="none" pointer-events="none"/><g fill="#000000" font-family="Arial,Helvetica" font-weight="bold" text-anchor="middle" font-size="12px"><text x="373" y="226.5">R1</text></g><rect x="389" y="129" width="2" height="2" fill="#000000" stroke="none" pointer-events="none"/><rect x="389" y="179" width="2" height="2" fill="#000000" stroke="none" pointer-events="none"/><ellipse cx="381" cy="141" rx="3" ry="3" fill="#000000" stroke="none" pointer-events="none"/><path d="M 379 151 C 401 151 401 151 401 151" fill="none" stroke="#000000" stroke-width="2" stroke-linecap="round" stroke-miterlimit="10" pointer-events="none"/><path d="M 379 159 C 401 159 401 159 401 159" fill="none" stroke="#000000" stroke-width="2" stroke-linecap="round" stroke-miterlimit="10" pointer-events="none"/><path d="M 390 131 L 390 150" fill="#000000" stroke="#000000" stroke-width="2" stroke-linecap="square" stroke-miterlimit="10" pointer-events="none"/><path d="M 390 160 L 390 179" fill="#000000" stroke="#000000" stroke-width="2" stroke-linecap="square" stroke-miterlimit="10" pointer-events="none"/><rect x="356" y="156" width="14" height="13" fill-opacity="0" fill="#dae2f2" stroke="none" pointer-events="none"/><g fill="#000000" font-family="Arial,Helvetica" font-weight="bold" text-anchor="middle" font-size="12px"><text x="363" y="166.5">C1</text></g><rect x="340" y="170" width="33" height="13" fill-opacity="0" fill="#dae2f2" stroke="none" pointer-events="none"/><g fill="#000000" font-family="Arial,Helvetica" font-weight="bold" text-anchor="middle" font-size="12px"><text x="356.5" y="180.5">100NF</text></g><rect x="479" y="159" width="2" height="2" fill="#000000" stroke="none" pointer-events="none"/><rect x="479" y="219" width="2" height="2" fill="#000000" stroke="none" pointer-events="none"/><path d="M 478.14 180 C 475.11 180 472.65 177.78 472.64 175.01 C 472.63 172.25 475.08 170 478.1 170 C 478.11 170 478.11 170 478.12 170" fill="none" stroke="#000000" stroke-width="2" stroke-linejoin="round" stroke-linecap="round" stroke-miterlimit="10" pointer-events="none"/><path d="M 478 170 L 480 170" fill="none" stroke="#000000" stroke-width="2" stroke-linejoin="round" stroke-linecap="round" stroke-miterlimit="10" pointer-events="none"/><path d="M 478 180 L 480 180" fill="none" stroke="#000000" stroke-width="2" stroke-linejoin="round" stroke-linecap="round" stroke-miterlimit="10" pointer-events="none"/><path d="M 478.14 190 C 475.11 190 472.65 187.78 472.64 185.01 C 472.63 182.25 475.08 180 478.1 180 C 478.11 180 478.11 180 478.12 180" fill="none" stroke="#000000" stroke-width="2" stroke-linejoin="round" stroke-linecap="round" stroke-miterlimit="10" pointer-events="none"/><path d="M 478 180 L 480 180" fill="none" stroke="#000000" stroke-width="2" stroke-linejoin="round" stroke-linecap="round" stroke-miterlimit="10" pointer-events="none"/><path d="M 478 190 L 480 190" fill="none" stroke="#000000" stroke-width="2" stroke-linejoin="round" stroke-linecap="round" stroke-miterlimit="10" pointer-events="none"/><path d="M 478.14 200 C 475.11 200 472.65 197.78 472.64 195.01 C 472.63 192.25 475.08 190 478.1 190 C 478.11 190 478.11 190 478.12 190" fill="none" stroke="#000000" stroke-width="2" stroke-linejoin="round" stroke-linecap="round" stroke-miterlimit="10" pointer-events="none"/><path d="M 478 190 L 480 190" fill="none" stroke="#000000" stroke-width="2" stroke-linejoin="round" stroke-linecap="round" stroke-miterlimit="10" pointer-events="none"/><path d="M 478 200 L 480 200" fill="none" stroke="#000000" stroke-width="2" stroke-linejoin="round" stroke-linecap="round" stroke-miterlimit="10" pointer-events="none"/><path d="M 478.14 210 C 475.11 210 472.65 207.78 472.64 205.01 C 472.63 202.25 475.08 200 478.1 200 C 478.11 200 478.11 200 478.12 200" fill="none" stroke="#000000" stroke-width="2" stroke-linejoin="round" stroke-linecap="round" stroke-miterlimit="10" pointer-events="none"/><path d="M 478 200 L 480 200" fill="none" stroke="#000000" stroke-width="2" stroke-linejoin="round" stroke-linecap="round" stroke-miterlimit="10" pointer-events="none"/><path d="M 478 210 L 480 210" fill="none" stroke="#000000" stroke-width="2" stroke-linejoin="round" stroke-linecap="round" stroke-miterlimit="10" pointer-events="none"/><path d="M 480 161 L 480 169" fill="none" stroke="#000000" stroke-width="2" stroke-linecap="square" stroke-miterlimit="10" pointer-events="none"/><path d="M 480 211 L 480 219" fill="none" stroke="#000000" stroke-width="2" stroke-linecap="square" stroke-miterlimit="10" pointer-events="none"/><rect x="442" y="160" width="28" height="13" fill-opacity="0" fill="#dae2f2" stroke="none" pointer-events="none"/><g fill="#000000" font-family="Arial,Helvetica" font-weight="bold" text-anchor="middle" font-size="12px"><text x="456" y="170.5">10NH</text></g><rect x="458" y="186" width="12" height="13" fill-opacity="0" fill="#dae2f2" stroke="none" pointer-events="none"/><g fill="#000000" font-family="Arial,Helvetica" font-weight="bold" text-anchor="middle" font-size="12px"><text x="464" y="196.5">L1</text></g><rect x="539" y="159" width="2" height="2" fill="#000000" stroke="none" pointer-events="none"/><rect x="539" y="219" width="2" height="2" fill="#000000" stroke="none" pointer-events="none"/><path d="M 540 172 L 547 175 L 540 178" fill="none" stroke="#000000" stroke-width="2" stroke-linejoin="round" stroke-linecap="round" stroke-miterlimit="10" pointer-events="none"/><path d="M 540 178 L 533 181 L 540 184" fill="none" stroke="#000000" stroke-width="2" stroke-linejoin="round" stroke-linecap="round" stroke-miterlimit="10" pointer-events="none"/><path d="M 540 184 L 547 187 L 540 190" fill="none" stroke="#000000" stroke-width="2" stroke-linejoin="round" stroke-linecap="round" stroke-miterlimit="10" pointer-events="none"/><path d="M 540 190 L 533 193 L 540 196" fill="none" stroke="#000000" stroke-width="2" stroke-linejoin="round" stroke-linecap="round" stroke-miterlimit="10" pointer-events="none"/><path d="M 540 196 L 547 199 L 540 202" fill="none" stroke="#000000" stroke-width="2" stroke-linejoin="round" stroke-linecap="round" stroke-miterlimit="10" pointer-events="none"/><path d="M 540 202 L 533 205 L 540 208" fill="none" stroke="#000000" stroke-width="2" stroke-linejoin="round" stroke-linecap="round" stroke-miterlimit="10" pointer-events="none"/><path d="M 540 161 L 540 171" fill="#000000" stroke="#000000" stroke-width="2" stroke-linecap="square" stroke-miterlimit="10" pointer-events="none"/><path d="M 540 209 L 540 219" fill="#000000" stroke="#000000" stroke-width="2" stroke-linecap="square" stroke-miterlimit="10" pointer-events="none"/><rect x="517" y="160" width="15" height="14" fill-opacity="0" fill="#dae2f2" stroke="none" pointer-events="none"/><g fill="#000000" font-family="Arial,Helvetica" font-weight="bold" text-anchor="middle" font-size="12px"><text x="524.5" y="171">1K</text></g><rect x="516" y="186" width="14" height="13" fill-opacity="0" fill="#dae2f2" stroke="none" pointer-events="none"/><g fill="#000000" font-family="Arial,Helvetica" font-weight="bold" text-anchor="middle" font-size="12px"><text x="523" y="196.5">R2</text></g><rect x="339" y="259" width="2" height="2" fill="#000000" stroke="none" pointer-events="none"/><path d="M 329 280.99 C 351.02 280.99 351.02 280.99 351.02 280.99" fill="none" stroke="#000000" stroke-width="2" stroke-linecap="round" stroke-miterlimit="10" pointer-events="none"/><path d="M 333.01 287 C 342.57 287 347.01 287 347.01 287" fill="none" stroke="#000000" stroke-width="2" stroke-linecap="round" stroke-miterlimit="10" pointer-events="none"/><path d="M 337.01 293 C 340.12 293 343.01 293 343.01 293" fill="none" stroke="#000000" stroke-width="2" stroke-linecap="round" stroke-miterlimit="10" pointer-events="none"/><path d="M 340 261 L 340 279" fill="#000000" stroke="#000000" stroke-width="2" stroke-linecap="square" stroke-miterlimit="10" pointer-events="none"/><rect x="609" y="159" width="2" height="2" fill="#000000" stroke="none" pointer-events="none"/><rect x="609" y="209" width="2" height="2" fill="#000000" stroke="none" pointer-events="none"/><ellipse cx="601" cy="171" rx="3" ry="3" fill="#000000" stroke="none" pointer-events="none"/><path d="M 599 181 C 621 181 621 181 621 181" fill="none" stroke="#000000" stroke-width="2" stroke-linecap="round" stroke-miterlimit="10" pointer-events="none"/><path d="M 599 189 C 621 189 621 189 621 189" fill="none" stroke="#000000" stroke-width="2" stroke-linecap="round" stroke-miterlimit="10" pointer-events="none"/><path d="M 610 161 L 610 180" fill="#000000" stroke="#000000" stroke-width="2" stroke-linecap="square" stroke-miterlimit="10" pointer-events="none"/><path d="M 610 190 L 610 209" fill="#000000" stroke="#000000" stroke-width="2" stroke-linecap="square" stroke-miterlimit="10" pointer-events="none"/><rect x="563" y="160" width="27" height="13" fill-opacity="0" fill="#dae2f2" stroke="none" pointer-events="none"/><g fill="#000000" font-family="Arial,Helvetica" font-weight="bold" text-anchor="middle" font-size="12px"><text x="576.5" y="170.5">10NF</text></g><rect x="576" y="186" width="14" height="13" fill-opacity="0" fill="#dae2f2" stroke="none" pointer-events="none"/><g fill="#000000" font-family="Arial,Helvetica" font-weight="bold" text-anchor="middle" font-size="12px"><text x="583" y="196.5">C2</text></g><rect x="219" y="159" width="2" height="2" fill="#000000" stroke="none" pointer-events="none"/><rect x="219" y="219" width="2" height="2" fill="#000000" stroke="none" pointer-events="none"/><path d="M 235 210 L 205 210 L 205 170 L 235 170 Z" fill="#ffffff" stroke="#000000" stroke-width="2" stroke-linejoin="round" stroke-linecap="round" stroke-miterlimit="10" pointer-events="none"/><ellipse cx="220" cy="195" rx="9.00004736" ry="9.00004736" fill="transparent" stroke="#000000" stroke-width="2" pointer-events="none"/><ellipse cx="220" cy="185" rx="9.00004736" ry="9.00004736" fill="transparent" stroke="#000000" stroke-width="2" pointer-events="none"/><path d="M 220 161 L 220 175" fill="none" stroke="#000000" stroke-width="2" stroke-linecap="square" stroke-miterlimit="10" pointer-events="none"/><path d="M 220 205 L 220 219" fill="none" stroke="#000000" stroke-width="2" stroke-linecap="square" stroke-miterlimit="10" pointer-events="none"/><g fill="#000000" font-family="Arial,Helvetica" text-anchor="middle" font-size="9px"><text x="211.19" y="217.58">V-</text></g><g fill="#000000" font-family="Arial,Helvetica" text-anchor="middle" font-size="9px"><text x="211.04" y="162.65">V+</text></g><rect x="75" y="160" width="125" height="13" fill-opacity="0" fill="#dae2f2" stroke="none" pointer-events="none"/><g fill="#000000" font-family="Arial,Helvetica" font-weight="bold" text-anchor="middle" font-size="12px"><text x="137.5" y="170.5">SINE ( 0 1 10Khz 0.0S 0 )</text></g></g></svg>