<svg width="1000" height="1000" viewBox="0 0 2 2" version="1.1" xmlns="http://www.w3.org/2000/svg" >
	
	<!-- <g transform = "translate(1,1)">
		<path d="
			M 0 0
			l 0 0.3
			" stroke="black" stroke-width="0.1" stroke-linejoin="bevel" fill="none"/>
		<path d="
			M -0.3 0.3
			l 0.6 0
			" stroke="black" stroke-width="0.1" stroke-linejoin="bevel" fill="none"/>
		<path d="
			M -0.3 0.7
			l 0.6 0
			" stroke="black" stroke-width="0.1" stroke-linejoin="bevel" fill="none"/>
		<path d="
			M 0 0.7
			l 0 0.3
			" stroke="black" stroke-width="0.1" stroke-linejoin="bevel" fill="none"/>
 	</g> -->

 	
 	<!-- <path
		d="
			M 0,0
			L 5.5,0
			C 5.5,0 5.5,-4 9.5,-4
			C 13.5,-4 13.5,0 13.5,0
			C 13.5,0 13.5,-4 17.5,-4
			C 21.5,-4 21.5,0 21.5,0
			C 21.5,0 21.5,-4 25.5,-4
			C 29.5,-4 29.5,0 29.5,0
			C 29.5,0 29.5,-4 33.5,-4
			C 37.5,-4 37.5,0 37.5,0
			L 43,0
		"
		stroke="black" stroke-width="2" stroke-linejoin="miter" fill="none" fill-rule="evenodd" fill-opacity="0.75" stroke-linecap="butt" stroke-opacity="1" transform="translate(1,1) scale(0.02325581395) rotate(90) "
	/> -->

	<!-- <circle cx="100" cy="100" r="3"/>	 -->
	<!-- <circle cx="100" cy="143" r="3"/>	 -->
	<!-- <g transform="translate(1,1) scale(0.02125,0.022727272727272728)">
		<g
	     transform="translate(-25.08161,-2.992383)">
	    <path
	       d="m 40,25 c 0,8.284271 -6.715729,15 -15,15 -8.284271,0 -15,-6.715729 -15,-15 0,-8.284271 6.715729,-15 15,-15 8.284271,0 15,6.715729 15,15 l 0,0 z"
	       style="opacity:1;fill:none;fill-opacity:1;stroke:#000000;stroke-width:2;stroke-linecap:square;stroke-miterlimit:4;stroke-dasharray:none;stroke-dashoffset:0;stroke-opacity:1"/>
	    <path
	       d="M 25,10 25,3"
	       style="fill:none;fill-opacity:0.75;fill-rule:evenodd;stroke:#000000;stroke-width:2px;stroke-linecap:butt;stroke-linejoin:miter;stroke-opacity:1"/>
	    <path
	       d="m 25,40 0,7"
	       style="fill:none;fill-opacity:0.75;fill-rule:evenodd;stroke:#000000;stroke-width:2px;stroke-linecap:butt;stroke-linejoin:miter;stroke-opacity:1"/>
	    <path
	       d="m 16,25.000005 c 0,0 1.5,-5.000001 4.5,-5.000001 3,0 6,10.000002 9,10.000002 3,0 4.5,-5.000001 4.5,-5.000001"
	       style="fill:none;fill-opacity:0.75;fill-rule:evenodd;stroke:#000000;stroke-width:2.00000012px;stroke-linecap:butt;stroke-linejoin:miter;stroke-opacity:1"/>
	  </g>
	</g> -->

	<!-- <g transform="translate(20,20)">
		<g>
		  <path
		     d="m -0.04587156,32.021257 0,-18.04878"
		     style="fill:none;fill-opacity:0.75;fill-rule:evenodd;stroke:#000000;stroke-width:1px;stroke-linecap:butt;stroke-linejoin:miter;stroke-opacity:1"/>
		  <path
		     d="m -0.04587156,12.472477 1.99999996,3 -4,0 2.00000004,-3 z"
		     style="fill:#000000;fill-opacity:1;fill-rule:evenodd;stroke:#000000;stroke-width:1px;stroke-linecap:butt;stroke-linejoin:miter;stroke-opacity:1"/>
		  <path
		     d="m 14.954128,21.972477 c 0,8.284271 -6.7157286,15 -14.99999956,15 -8.28427104,0 -15.00000044,-6.715729 -15.00000044,-15 0,-8.284271 6.7157294,-14.9999999 15.00000044,-14.9999999 8.28427096,0 14.99999956,6.7157289 14.99999956,14.9999999 l 0,0 z"
		     style="opacity:1;fill:none;fill-opacity:1;stroke:#000000;stroke-width:1;stroke-linecap:square;stroke-miterlimit:4;stroke-dasharray:none;stroke-dashoffset:0;stroke-opacity:1"/>
		  <path
		     d="m -0.04587156,6.9724771 0,-7.00000004"
		     style="fill:none;fill-opacity:0.75;fill-rule:evenodd;stroke:#000000;stroke-width:1px;stroke-linecap:butt;stroke-linejoin:miter;stroke-opacity:1"/>
		  <path
		     d="m -0.04587156,36.972477 0,7"
		     style="fill:none;fill-opacity:0.75;fill-rule:evenodd;stroke:#000000;stroke-width:1px;stroke-linecap:butt;stroke-linejoin:miter;stroke-opacity:1"/>
		</g>
	</g> -->

	<g transform="translate(1,1) scale(0.02125,0.022727272727272728)">
		<g transform="translate(-25.08161,-2.992383)">
		    <path
		       d="m 40,25 c 0,8.284271 -6.715729,15 -15,15 -8.284271,0 -15,-6.715729 -15,-15 0,-8.284271 6.715729,-15 15,-15 8.284271,0 15,6.715729 15,15 l 0,0 z"
		       style="opacity:1;fill:none;fill-opacity:1;stroke:#000000;stroke-width:1;stroke-linecap:square;stroke-miterlimit:4;stroke-dasharray:none;stroke-dashoffset:0;stroke-opacity:1" />
		    <path
		       d="M 25,10 25,3"
		       style="fill:none;fill-opacity:0.75;fill-rule:evenodd;stroke:#000000;stroke-width:1;stroke-linecap:butt;stroke-linejoin:miter;stroke-opacity:1"/>
		    <path
		       d="m 25,40 0,7"
		       style="fill:none;fill-opacity:0.75;fill-rule:evenodd;stroke:#000000;stroke-width:1;stroke-linecap:butt;stroke-linejoin:miter;stroke-opacity:1"/>
		    <path
		       d="m 25.136017,23.540261 0,11.951034"
		       style="fill:none;fill-opacity:0.75;fill-rule:evenodd;stroke:#000000;stroke-width:1;stroke-linecap:butt;stroke-linejoin:miter;stroke-opacity:1"/>
		    <path
		       style="fill:#000000;fill-rule:evenodd;stroke:#000000;stroke-width:1;stroke-linecap:butt;stroke-linejoin:miter;stroke-opacity:1;fill-opacity:1"
		       d="m 25.136017,18.552775 -3.210011,4.951033 6.63765,0.05441 z"/>
		  </g>
	</g>

 	<line x1="0" y1="0" x2="2" y2="0" stroke="black" stroke-width="0.01"/>
 	<line x1="0" y1="1" x2="2" y2="1" stroke="black" stroke-width="0.01"/>
 	<line x1="0" y1="2" x2="2" y2="2" stroke="black" stroke-width="0.01"/>
 	<line x1="0" y1="0" x2="0" y2="2" stroke="black" stroke-width="0.01"/>
 	<line x1="1" y1="0" x2="1" y2="2" stroke="black" stroke-width="0.01"/>
 	<line x1="2" y1="0" x2="2" y2="2" stroke="black" stroke-width="0.01"/>
 </svg>