<svg xmlns="http://www.w3.org/2000/svg" xmlns:xlink="http://www.w3.org/1999/xlink" version="1.1" width="324" height="155"><defs/><g transform=" scale(0.79) translate(-61.5,-119.5)"><path d="M 350 160 L 410 160 L 410 180" fill="none" stroke="#000000" stroke-width="2" stroke-miterlimit="10" pointer-events="none"/><rect x="390" y="140" width="31" height="14" fill-opacity="0" fill="#dae2f2" stroke="none" pointer-events="none"/><g fill="#000000" font-family="Arial,Helvetica" font-weight="bold" text-anchor="middle" font-size="12px"><text x="405.5" y="151">NET2</text></g><path d="M 240 250 L 240 270 L 300 270" fill="none" stroke="#000000" stroke-width="2" stroke-miterlimit="10" pointer-events="none"/><path d="M 410 240 L 410 270 L 302 270" fill="none" stroke="#000000" stroke-width="2" stroke-miterlimit="10" pointer-events="none"/><ellipse cx="300" cy="270" rx="2" ry="2" fill="#000000" stroke="#000000" stroke-width="2" pointer-events="none"/><path d="M 290 160 L 240 160 L 240 190" fill="none" stroke="#000000" stroke-width="2" stroke-miterlimit="10" pointer-events="none"/><rect x="230" y="140" width="26" height="14" fill-opacity="0" fill="#dae2f2" stroke="none" pointer-events="none"/><g fill="#000000" font-family="Arial,Helvetica" font-weight="bold" text-anchor="middle" font-size="12px"><text x="243" y="151">Net1</text></g><rect x="299" y="269" width="2" height="2" fill="#000000" stroke="none" pointer-events="none"/><path d="M 289 290.99 C 311.02 290.99 311.02 290.99 311.02 290.99" fill="none" stroke="#000000" stroke-width="2" stroke-linecap="round" stroke-miterlimit="10" pointer-events="none"/><path d="M 293.01 297 C 302.57 297 307.01 297 307.01 297" fill="none" stroke="#000000" stroke-width="2" stroke-linecap="round" stroke-miterlimit="10" pointer-events="none"/><path d="M 297.01 303 C 300.12 303 303.01 303 303.01 303" fill="none" stroke="#000000" stroke-width="2" stroke-linecap="round" stroke-miterlimit="10" pointer-events="none"/><path d="M 300 271 L 300 289" fill="#000000" stroke="#000000" stroke-width="2" stroke-linecap="square" stroke-miterlimit="10" pointer-events="none"/><rect x="239" y="189" width="2" height="2" fill="#000000" stroke="none" pointer-events="none"/><rect x="239" y="249" width="2" height="2" fill="#000000" stroke="none" pointer-events="none"/><ellipse cx="240" cy="220" rx="18.99984629" ry="18.99984629" fill="#ffffff" stroke="#000000" stroke-width="2" pointer-events="none"/><path d="M 240 191 L 240 200" fill="none" stroke="#000000" stroke-width="2" stroke-linecap="square" stroke-miterlimit="10" pointer-events="none"/><path d="M 240 240 L 240 249" fill="none" stroke="#000000" stroke-width="2" stroke-linecap="square" stroke-miterlimit="10" pointer-events="none"/><path d="M 225.43 220 C 240 184.92 240.05 254.74 254.31 220.12" fill="none" stroke="#000000" stroke-width="2" stroke-linejoin="round" stroke-linecap="round" stroke-miterlimit="10" pointer-events="none"/><path d="M 242.82 196.31 L 249.32 196.31" fill="none" stroke="#000000" stroke-width="1.29" stroke-linecap="round" stroke-miterlimit="10" pointer-events="none"/><path d="M 245.99 193.04 L 245.99 199.84" fill="none" stroke="#000000" stroke-width="1.39" stroke-linecap="round" stroke-miterlimit="10" pointer-events="none"/><rect x="74" y="190" width="146" height="13" fill-opacity="0" fill="#dae2f2" stroke="none" pointer-events="none"/><g fill="#000000" font-family="Arial,Helvetica" font-weight="bold" text-anchor="middle" font-size="12px"><text x="147" y="200.5">SINE ( 0 10 0.159Khz 0.0S 0 )</text></g><rect x="319" y="129" width="2" height="2" fill="#000000" stroke="none" transform="rotate(90,320,160)" pointer-events="none"/><rect x="319" y="189" width="2" height="2" fill="#000000" stroke="none" transform="rotate(90,320,160)" pointer-events="none"/><path d="M 320 142 L 327 145 L 320 148" fill="none" stroke="#000000" stroke-width="2" stroke-linejoin="round" stroke-linecap="round" stroke-miterlimit="10" transform="rotate(90,320,160)" pointer-events="none"/><path d="M 320 148 L 313 151 L 320 154" fill="none" stroke="#000000" stroke-width="2" stroke-linejoin="round" stroke-linecap="round" stroke-miterlimit="10" transform="rotate(90,320,160)" pointer-events="none"/><path d="M 320 154 L 327 157 L 320 160" fill="none" stroke="#000000" stroke-width="2" stroke-linejoin="round" stroke-linecap="round" stroke-miterlimit="10" transform="rotate(90,320,160)" pointer-events="none"/><path d="M 320 160 L 313 163 L 320 166" fill="none" stroke="#000000" stroke-width="2" stroke-linejoin="round" stroke-linecap="round" stroke-miterlimit="10" transform="rotate(90,320,160)" pointer-events="none"/><path d="M 320 166 L 327 169 L 320 172" fill="none" stroke="#000000" stroke-width="2" stroke-linejoin="round" stroke-linecap="round" stroke-miterlimit="10" transform="rotate(90,320,160)" pointer-events="none"/><path d="M 320 172 L 313 175 L 320 178" fill="none" stroke="#000000" stroke-width="2" stroke-linejoin="round" stroke-linecap="round" stroke-miterlimit="10" transform="rotate(90,320,160)" pointer-events="none"/><path d="M 320 131 L 320 141" fill="#000000" stroke="#000000" stroke-width="2" stroke-linecap="square" stroke-miterlimit="10" transform="rotate(90,320,160)" pointer-events="none"/><path d="M 320 179 L 320 189" fill="#000000" stroke="#000000" stroke-width="2" stroke-linecap="square" stroke-miterlimit="10" transform="rotate(90,320,160)" pointer-events="none"/><rect x="338" y="137" width="12" height="13" fill-opacity="0" fill="#dae2f2" stroke="none" pointer-events="none"/><g fill="#000000" font-family="Arial,Helvetica" font-weight="bold" text-anchor="middle" font-size="12px"><text x="344" y="147.5">10</text></g><rect x="336" y="124" width="14" height="13" fill-opacity="0" fill="#dae2f2" stroke="none" pointer-events="none"/><g fill="#000000" font-family="Arial,Helvetica" font-weight="bold" text-anchor="middle" font-size="12px"><text x="343" y="134.5">R1</text></g><rect x="409" y="179" width="2" height="2" fill="#000000" stroke="none" pointer-events="none"/><rect x="409" y="239" width="2" height="2" fill="#000000" stroke="none" pointer-events="none"/><path d="M 408.14 200 C 405.11 200 402.65 197.78 402.64 195.01 C 402.63 192.25 405.08 190 408.1 190 C 408.11 190 408.11 190 408.12 190" fill="none" stroke="#000000" stroke-width="2" stroke-linejoin="round" stroke-linecap="round" stroke-miterlimit="10" pointer-events="none"/><path d="M 408 190 L 410 190" fill="none" stroke="#000000" stroke-width="2" stroke-linejoin="round" stroke-linecap="round" stroke-miterlimit="10" pointer-events="none"/><path d="M 408 200 L 410 200" fill="none" stroke="#000000" stroke-width="2" stroke-linejoin="round" stroke-linecap="round" stroke-miterlimit="10" pointer-events="none"/><path d="M 408.14 210 C 405.11 210 402.65 207.78 402.64 205.01 C 402.63 202.25 405.08 200 408.1 200 C 408.11 200 408.11 200 408.12 200" fill="none" stroke="#000000" stroke-width="2" stroke-linejoin="round" stroke-linecap="round" stroke-miterlimit="10" pointer-events="none"/><path d="M 408 200 L 410 200" fill="none" stroke="#000000" stroke-width="2" stroke-linejoin="round" stroke-linecap="round" stroke-miterlimit="10" pointer-events="none"/><path d="M 408 210 L 410 210" fill="none" stroke="#000000" stroke-width="2" stroke-linejoin="round" stroke-linecap="round" stroke-miterlimit="10" pointer-events="none"/><path d="M 408.14 220 C 405.11 220 402.65 217.78 402.64 215.01 C 402.63 212.25 405.08 210 408.1 210 C 408.11 210 408.11 210 408.12 210" fill="none" stroke="#000000" stroke-width="2" stroke-linejoin="round" stroke-linecap="round" stroke-miterlimit="10" pointer-events="none"/><path d="M 408 210 L 410 210" fill="none" stroke="#000000" stroke-width="2" stroke-linejoin="round" stroke-linecap="round" stroke-miterlimit="10" pointer-events="none"/><path d="M 408 220 L 410 220" fill="none" stroke="#000000" stroke-width="2" stroke-linejoin="round" stroke-linecap="round" stroke-miterlimit="10" pointer-events="none"/><path d="M 408.14 230 C 405.11 230 402.65 227.78 402.64 225.01 C 402.63 222.25 405.08 220 408.1 220 C 408.11 220 408.11 220 408.12 220" fill="none" stroke="#000000" stroke-width="2" stroke-linejoin="round" stroke-linecap="round" stroke-miterlimit="10" pointer-events="none"/><path d="M 408 220 L 410 220" fill="none" stroke="#000000" stroke-width="2" stroke-linejoin="round" stroke-linecap="round" stroke-miterlimit="10" pointer-events="none"/><path d="M 408 230 L 410 230" fill="none" stroke="#000000" stroke-width="2" stroke-linejoin="round" stroke-linecap="round" stroke-miterlimit="10" pointer-events="none"/><path d="M 410 181 L 410 189" fill="none" stroke="#000000" stroke-width="2" stroke-linecap="square" stroke-miterlimit="10" pointer-events="none"/><path d="M 410 231 L 410 239" fill="none" stroke="#000000" stroke-width="2" stroke-linecap="square" stroke-miterlimit="10" pointer-events="none"/><rect x="371" y="180" width="29" height="13" fill-opacity="0" fill="#dae2f2" stroke="none" pointer-events="none"/><g fill="#000000" font-family="Arial,Helvetica" font-weight="bold" text-anchor="middle" font-size="12px"><text x="385.5" y="190.5">10MH</text></g><rect x="388" y="206" width="12" height="13" fill-opacity="0" fill="#dae2f2" stroke="none" pointer-events="none"/><g fill="#000000" font-family="Arial,Helvetica" font-weight="bold" text-anchor="middle" font-size="12px"><text x="394" y="216.5">L1</text></g></g></svg>