<svg xmlns="http://www.w3.org/2000/svg" xmlns:xlink="http://www.w3.org/1999/xlink" version="1.1" width="337" height="238"><defs/><g transform=" scale(0.86) translate(-97.5,-26)"><path d="M 440 180 L 440 200" fill="none" stroke="#000000" stroke-width="2" stroke-miterlimit="10" pointer-events="none"/><rect x="440" y="180" width="30" height="20" fill-opacity="0" fill="#dae2f2" stroke="none" pointer-events="none"/><g fill="#000000" font-family="Arial,Helvetica" font-weight="bold" text-anchor="middle" font-size="12px"><text x="455" y="194">Net3</text></g><path d="M 440 260 L 332 260" fill="none" stroke="#000000" stroke-width="2" stroke-miterlimit="10" pointer-events="none"/><ellipse cx="330" cy="260" rx="2" ry="2" fill="#000000" stroke="#000000" stroke-width="2" pointer-events="none"/><path d="M 290 180 L 290 260 L 360 260" fill="none" stroke="#000000" stroke-width="2" stroke-miterlimit="10" pointer-events="none"/><path d="M 440 110 L 440 130" fill="none" stroke="#000000" stroke-width="2" stroke-miterlimit="10" pointer-events="none"/><rect x="440" y="110" width="30" height="20" fill-opacity="0" fill="#dae2f2" stroke="none" pointer-events="none"/><g fill="#000000" font-family="Arial,Helvetica" font-weight="bold" text-anchor="middle" font-size="12px"><text x="455" y="124">Net2</text></g><path d="M 440 50 L 440 40 L 290 40 L 290 120" fill="none" stroke="#000000" stroke-width="2" stroke-miterlimit="10" pointer-events="none"/><rect x="440" y="30" width="30" height="20" fill-opacity="0" fill="#dae2f2" stroke="none" pointer-events="none"/><g fill="#000000" font-family="Arial,Helvetica" font-weight="bold" text-anchor="middle" font-size="12px"><text x="455" y="44">Net1</text></g><rect x="439" y="199" width="2" height="2" fill="#000000" stroke="none" pointer-events="none"/><rect x="439" y="259" width="2" height="2" fill="#000000" stroke="none" pointer-events="none"/><path d="M 440 212 L 447 215 L 440 218" fill="none" stroke="#000000" stroke-width="2" stroke-linejoin="round" stroke-linecap="round" stroke-miterlimit="10" pointer-events="none"/><path d="M 440 218 L 433 221 L 440 224" fill="none" stroke="#000000" stroke-width="2" stroke-linejoin="round" stroke-linecap="round" stroke-miterlimit="10" pointer-events="none"/><path d="M 440 224 L 447 227 L 440 230" fill="none" stroke="#000000" stroke-width="2" stroke-linejoin="round" stroke-linecap="round" stroke-miterlimit="10" pointer-events="none"/><path d="M 440 230 L 433 233 L 440 236" fill="none" stroke="#000000" stroke-width="2" stroke-linejoin="round" stroke-linecap="round" stroke-miterlimit="10" pointer-events="none"/><path d="M 440 236 L 447 239 L 440 242" fill="none" stroke="#000000" stroke-width="2" stroke-linejoin="round" stroke-linecap="round" stroke-miterlimit="10" pointer-events="none"/><path d="M 440 242 L 433 245 L 440 248" fill="none" stroke="#000000" stroke-width="2" stroke-linejoin="round" stroke-linecap="round" stroke-miterlimit="10" pointer-events="none"/><path d="M 440 201 L 440 211" fill="#000000" stroke="#000000" stroke-width="2" stroke-linecap="square" stroke-miterlimit="10" pointer-events="none"/><path d="M 440 249 L 440 259" fill="#000000" stroke="#000000" stroke-width="2" stroke-linecap="square" stroke-miterlimit="10" pointer-events="none"/><rect x="411" y="200" width="19" height="13" fill-opacity="0" fill="#dae2f2" stroke="none" pointer-events="none"/><g fill="#000000" font-family="Arial,Helvetica" font-weight="bold" text-anchor="middle" font-size="12px"><text x="420.5" y="210.5">10K</text></g><rect x="416" y="226" width="14" height="13" fill-opacity="0" fill="#dae2f2" stroke="none" pointer-events="none"/><g fill="#000000" font-family="Arial,Helvetica" font-weight="bold" text-anchor="middle" font-size="12px"><text x="423" y="236.5">R1</text></g><rect x="439" y="129" width="2" height="2" fill="#000000" stroke="none" pointer-events="none"/><rect x="439" y="179" width="2" height="2" fill="#000000" stroke="none" pointer-events="none"/><ellipse cx="431" cy="141" rx="3" ry="3" fill="#000000" stroke="none" pointer-events="none"/><path d="M 429 151 C 451 151 451 151 451 151" fill="none" stroke="#000000" stroke-width="2" stroke-linecap="round" stroke-miterlimit="10" pointer-events="none"/><path d="M 429 159 C 451 159 451 159 451 159" fill="none" stroke="#000000" stroke-width="2" stroke-linecap="round" stroke-miterlimit="10" pointer-events="none"/><path d="M 440 131 L 440 150" fill="#000000" stroke="#000000" stroke-width="2" stroke-linecap="square" stroke-miterlimit="10" pointer-events="none"/><path d="M 440 160 L 440 179" fill="#000000" stroke="#000000" stroke-width="2" stroke-linecap="square" stroke-miterlimit="10" pointer-events="none"/><rect x="406" y="156" width="14" height="13" fill-opacity="0" fill="#dae2f2" stroke="none" pointer-events="none"/><g fill="#000000" font-family="Arial,Helvetica" font-weight="bold" text-anchor="middle" font-size="12px"><text x="413" y="166.5">C1</text></g><rect x="390" y="170" width="33" height="13" fill-opacity="0" fill="#dae2f2" stroke="none" pointer-events="none"/><g fill="#000000" font-family="Arial,Helvetica" font-weight="bold" text-anchor="middle" font-size="12px"><text x="406.5" y="180.5">100NF</text></g><rect x="439" y="49" width="2" height="2" fill="#000000" stroke="none" pointer-events="none"/><rect x="439" y="109" width="2" height="2" fill="#000000" stroke="none" pointer-events="none"/><path d="M 438.14 70 C 435.11 70 432.65 67.78 432.64 65.01 C 432.63 62.25 435.08 60 438.1 60 C 438.11 60 438.11 60 438.12 60" fill="none" stroke="#000000" stroke-width="2" stroke-linejoin="round" stroke-linecap="round" stroke-miterlimit="10" pointer-events="none"/><path d="M 438 60 L 440 60" fill="none" stroke="#000000" stroke-width="2" stroke-linejoin="round" stroke-linecap="round" stroke-miterlimit="10" pointer-events="none"/><path d="M 438 70 L 440 70" fill="none" stroke="#000000" stroke-width="2" stroke-linejoin="round" stroke-linecap="round" stroke-miterlimit="10" pointer-events="none"/><path d="M 438.14 80 C 435.11 80 432.65 77.78 432.64 75.01 C 432.63 72.25 435.08 70 438.1 70 C 438.11 70 438.11 70 438.12 70" fill="none" stroke="#000000" stroke-width="2" stroke-linejoin="round" stroke-linecap="round" stroke-miterlimit="10" pointer-events="none"/><path d="M 438 70 L 440 70" fill="none" stroke="#000000" stroke-width="2" stroke-linejoin="round" stroke-linecap="round" stroke-miterlimit="10" pointer-events="none"/><path d="M 438 80 L 440 80" fill="none" stroke="#000000" stroke-width="2" stroke-linejoin="round" stroke-linecap="round" stroke-miterlimit="10" pointer-events="none"/><path d="M 438.14 90 C 435.11 90 432.65 87.78 432.64 85.01 C 432.63 82.25 435.08 80 438.1 80 C 438.11 80 438.11 80 438.12 80" fill="none" stroke="#000000" stroke-width="2" stroke-linejoin="round" stroke-linecap="round" stroke-miterlimit="10" pointer-events="none"/><path d="M 438 80 L 440 80" fill="none" stroke="#000000" stroke-width="2" stroke-linejoin="round" stroke-linecap="round" stroke-miterlimit="10" pointer-events="none"/><path d="M 438 90 L 440 90" fill="none" stroke="#000000" stroke-width="2" stroke-linejoin="round" stroke-linecap="round" stroke-miterlimit="10" pointer-events="none"/><path d="M 438.14 100 C 435.11 100 432.65 97.78 432.64 95.01 C 432.63 92.25 435.08 90 438.1 90 C 438.11 90 438.11 90 438.12 90" fill="none" stroke="#000000" stroke-width="2" stroke-linejoin="round" stroke-linecap="round" stroke-miterlimit="10" pointer-events="none"/><path d="M 438 90 L 440 90" fill="none" stroke="#000000" stroke-width="2" stroke-linejoin="round" stroke-linecap="round" stroke-miterlimit="10" pointer-events="none"/><path d="M 438 100 L 440 100" fill="none" stroke="#000000" stroke-width="2" stroke-linejoin="round" stroke-linecap="round" stroke-miterlimit="10" pointer-events="none"/><path d="M 440 51 L 440 59" fill="none" stroke="#000000" stroke-width="2" stroke-linecap="square" stroke-miterlimit="10" pointer-events="none"/><path d="M 440 101 L 440 109" fill="none" stroke="#000000" stroke-width="2" stroke-linecap="square" stroke-miterlimit="10" pointer-events="none"/><rect x="402" y="50" width="28" height="13" fill-opacity="0" fill="#dae2f2" stroke="none" pointer-events="none"/><g fill="#000000" font-family="Arial,Helvetica" font-weight="bold" text-anchor="middle" font-size="12px"><text x="416" y="60.5">10NH</text></g><rect x="418" y="76" width="12" height="13" fill-opacity="0" fill="#dae2f2" stroke="none" pointer-events="none"/><g fill="#000000" font-family="Arial,Helvetica" font-weight="bold" text-anchor="middle" font-size="12px"><text x="424" y="86.5">L1</text></g><rect x="359" y="259" width="2" height="2" fill="#000000" stroke="none" pointer-events="none"/><path d="M 349 280.99 C 371.02 280.99 371.02 280.99 371.02 280.99" fill="none" stroke="#000000" stroke-width="2" stroke-linecap="round" stroke-miterlimit="10" pointer-events="none"/><path d="M 353.01 287 C 362.57 287 367.01 287 367.01 287" fill="none" stroke="#000000" stroke-width="2" stroke-linecap="round" stroke-miterlimit="10" pointer-events="none"/><path d="M 357.01 293 C 360.12 293 363.01 293 363.01 293" fill="none" stroke="#000000" stroke-width="2" stroke-linecap="round" stroke-miterlimit="10" pointer-events="none"/><path d="M 360 261 L 360 279" fill="#000000" stroke="#000000" stroke-width="2" stroke-linecap="square" stroke-miterlimit="10" pointer-events="none"/><rect x="289" y="119" width="2" height="2" fill="#000000" stroke="none" pointer-events="none"/><rect x="289" y="179" width="2" height="2" fill="#000000" stroke="none" pointer-events="none"/><ellipse cx="290" cy="150" rx="18.99984629" ry="18.99984629" fill="#ffffff" stroke="#000000" stroke-width="2" pointer-events="none"/><path d="M 290 121 L 290 130" fill="none" stroke="#000000" stroke-width="2" stroke-linecap="square" stroke-miterlimit="10" pointer-events="none"/><path d="M 290 170 L 290 179" fill="none" stroke="#000000" stroke-width="2" stroke-linecap="square" stroke-miterlimit="10" pointer-events="none"/><path d="M 275.43 150 C 290 114.92 290.05 184.74 304.31 150.12" fill="none" stroke="#000000" stroke-width="2" stroke-linejoin="round" stroke-linecap="round" stroke-miterlimit="10" pointer-events="none"/><path d="M 292.82 126.31 L 299.32 126.31" fill="none" stroke="#000000" stroke-width="1.29" stroke-linecap="round" stroke-miterlimit="10" pointer-events="none"/><path d="M 295.99 123.04 L 295.99 129.84" fill="none" stroke="#000000" stroke-width="1.39" stroke-linecap="round" stroke-miterlimit="10" pointer-events="none"/><rect x="110" y="170" width="152" height="13" fill-opacity="0" fill="#dae2f2" stroke="none" pointer-events="none"/><g fill="#000000" font-family="Arial,Helvetica" font-weight="bold" text-anchor="middle" font-size="12px"><text x="186" y="180.5">SINE ( 0.0 1.0 10Khz 0.0S 0.0 )</text></g></g></svg>